<svg xmlns="http://www.w3.org/2000/svg" viewBox="0 20 532 96" fill="#fff"><polygon id="E" points="2.43 22.82 2.43 63.9 45.96 63.9 45.96 54.59 16.98 54.59 16.98 48.07 43.25 48.07 43.25 38.76 17.03 38.76 17.03 32.07 45.38 32.07 45.38 22.82 2.43 22.82"/><use href="#E" x="485.96"/><polygon points="89.95 22.82 79.67 49.64 69.4 22.82 50.05 22.82 50.05 63.9 64.37 63.9 64.37 37.71 73.9 63.9 85.16 63.9 94.8 37.6 94.8 63.9 109.23 63.9 109.23 22.82 89.95 22.82"/><path d="M114.66,22.82h34.18c2.83.06,6.7.12,9.53,2.15,2.95,2.15,3.46,5.64,3.46,7.51,0,5.12-2.89,7.97-7.85,9.19,2.43.35,5.37.81,7.62,3.2,1.73,1.86,2.31,3.96,2.31,6.87,0,5.7-3.29,9.08-7.33,10.65-3.41,1.28-7.39,1.51-10.56,1.51h-31.35V22.82ZM129.26,54.53h14.78c1.44,0,2.48-.06,3.12-.35,1.9-.7,2.25-2.15,2.25-3.55,0-1.57-.75-2.62-1.96-2.97-.92-.29-1.9-.29-3.69-.29h-14.49v7.16ZM129.32,38.47h13.68c2.19,0,2.66-.17,3.06-.35,1.1-.41,1.79-1.4,1.79-2.97,0-1.16-.52-2.1-1.85-2.68-.58-.29-1.56-.35-2.95-.35h-13.74v6.34Z"/><path id="R" d="M168.23,22.82h29.97c3.58.06,7.97.12,11.37,2.62,2.94,2.27,4.79,6.28,4.79,10.42,0,2.91-.93,5.76-2.6,7.8-2.31,2.79-5.08,3.37-6.81,3.84l10.22,16.41h-16.16l-8.37-14.95h-7.79v14.95h-14.61V22.82ZM182.84,39.63h10.97c2.25,0,5.95-.06,5.95-3.72,0-.93-.29-1.92-1.04-2.62-1.15-1.05-2.66-1.16-3.75-1.16h-12.12v7.51Z"/><use href="#R" x="107.84"/><path d="M230.06,22.82l6.76,12.34c1.04,2.15,1.21,2.5,2.14,4.71.98-2.27,1.21-2.91,2.48-5.53l6.35-11.52h16.86l-18.48,28.86v12.22h-14.43v-12.22l-18.71-28.86h17.03Z"/><rect x="326.24" y="22.82" width="14.61" height="41.08"/><path id="D" d="M346.78,22.82h23.15c4.22,0,16.05-.23,21.71,9.72.87,1.51,2.83,5.12,2.83,11.23,0,3.2-.58,6.46-1.85,9.37-1.04,2.39-2.94,5.7-7.62,8.15-4.39,2.33-8.43,2.62-12.36,2.62h-25.86V22.82ZM361.04,54.59h6.41c4.97,0,7.8-.93,9.47-2.44,1.96-1.75,3.29-5.18,3.29-8.67,0-3.9-1.56-6.87-3.64-8.55-2.54-2.04-6.01-2.33-8.72-2.33h-6.81v21.99Z"/><use href="#D" x="51.26"/><polygon points="463.91 22.82 463.91 53.89 484.7 53.89 484.7 63.9 449.25 63.9 449.25 22.82 463.91 22.82"/><polygon points="277.89 39.63 261.88 39.63 256.12 48.95 277.89 48.95 277.89 39.63" fill-rule="evenodd"/><path d="M17.84,74.25h4.6l15.71,30.93h-4.99l-3.73-7.61H10.59l-3.73,7.61H1.99l15.85-30.93ZM21.09,80.99c-.22-.53-.48-1.05-.7-1.58-.13-.4-.26-.79-.35-1.18-.13.39-.26.83-.44,1.27-.22.57-.48,1.09-.74,1.66l-6.47,12.82h15.15l-6.47-12.99Z"/><path id="e" d="M63.9,98.97c-.78,1.53-1.48,2.89-3.6,4.38-3.21,2.19-7.08,2.49-8.94,2.49-6.73,0-12.98-3.72-12.98-11.46,0-6.65,5.08-11.24,12.85-11.24s12.94,5.12,13.11,11.86h-21.75c.17,1.31.39,2.75,1.56,4.2,1.6,2.01,4.56,3.33,7.73,3.33,1.91,0,3.91-.53,5.47-1.58,1.47-1.01,2-1.97,2.6-3.06l3.95,1.09ZM59.68,91.88c-.52-1.36-2.08-5.65-8.2-5.65-6.47,0-8.25,4.42-8.77,5.65h16.97Z"/><use href="#e" x="371"/><path id="r" d="M67.06,83.83h4.12v2.41c3.04-2.93,7.21-3.02,8.16-3.02,1.08,0,1.61.13,2.47.31v4.11c-1.09-.31-1.82-.53-3.26-.53-1.35,0-2.65.18-3.73.57-3.6,1.36-3.6,4.29-3.6,5.91v11.59h-4.17v-21.35Z"/><use href="#r" x="371"/><path d="M95.8,83.31c7.38-.04,13.89,3.63,13.89,11.29,0,7.26-6.3,11.24-13.81,11.24-8.9,0-13.89-4.72-13.89-10.94,0-7,5.82-11.55,13.76-11.59h.04ZM86.16,94.64c0,4.55,3.99,7.75,9.94,7.75,4.95,0,9.42-2.93,9.42-7.79s-4.3-7.96-9.94-7.88c-6.16.09-9.42,3.81-9.42,7.92"/><path id="n" d="M116.59,86.41c.96-.83,1.69-1.49,3.52-2.19,1.78-.7,3.69-1.05,5.9-1.05,3.73,0,7.42,1.09,9.55,3.76,1.65,2.1,1.69,4.38,1.69,6.69v11.55h-4.08v-11.29c-.04-1.88-.09-3.85-2.04-5.43-1.91-1.58-4.38-1.71-5.82-1.71s-2.86.13-4.69.92c-4,1.79-4.04,5.08-4.04,7.35v10.15h-4.12v-21.35h4.12v2.58Z"/><use href="#n" x="236"/><path d="M141.64,88.6c.91-2.49,2-5.43,11.42-5.43,1.87,0,4.47.22,6.43.74,4.73,1.31,4.73,4.37,4.73,6.74v7.74c0,2.84,0,4.03,2.34,4.03.52,0,1.04-.09,1.56-.13v2.84c-1.34.13-2.56.26-3.65.26-3.69,0-3.91-2.1-4.08-3.63-.52.79-1.09,1.62-2.87,2.62-1.82.96-4.43,1.58-7.21,1.58-8.72,0-10.07-4.99-10.07-7.35,0-2.63,1.43-5.21,4.86-6.13,2.17-.57,6.34-.61,9.2-.61h5.99c.04-2.28.04-3.98-2.21-4.94-.87-.4-2.47-.75-4.77-.75-1.78,0-3.56.13-5.17.79-1.56.61-2,1.35-2.35,2.01l-4.17-.39ZM152.63,95.07c-2.43,0-4.69.04-6.03.57-1.52.57-2.21,1.71-2.21,2.93,0,1.97,1.69,4.2,6.08,4.2.7,0,4.34-.09,6.95-1.84,2.78-1.88,2.95-4.29,2.95-5.86h-7.73Z"/><path d="M169.95,83.83h4.08v10.81c0,2.32.08,4.07,1.34,5.42,1.43,1.57,4,2.19,6.47,2.19,4.82,0,7.34-2.41,8.03-3.54.74-1.18.74-2.41.74-3.59v-11.29h4.13v21.35h-4.04v-2.67c-1.69,1.44-4.04,3.41-9.33,3.41-1.99,0-4.47-.35-6.47-1.22-4.95-2.23-4.95-6.13-4.95-9.63v-11.24Z"/><path id="t" d="M202.29,76.48h4.08v7.31h5.95v2.89h-5.99l-.04,11.46c.04,2.14,0,3.72,2.91,3.72,1,0,1.87-.13,2.99-.35v3.67c-1.34.13-2.69.31-4.08.31-5.82,0-5.77-2.93-5.82-6.17v-12.69l-3.65.04v-2.89h3.65v-7.31Z"/><use href="#t" x="291.5"/><path id="i" d="M216.96,76.04h4.08v4.2h-4.08v-4.2ZM217,83.83h4.12v21.35h-4.12v-21.35Z"/><use href="#i" x="160.44"/><use href="#i" x="265.32"/><path d="M251.95,99.49c-.78,1.36-1.26,2.19-2.65,3.32-3.13,2.49-7.17,3.11-10.25,3.11-2.3,0-4.64-.26-6.82-1.05-4.64-1.71-7.16-5.51-7.16-10.46,0-7.22,6.25-11.2,14.11-11.2,2.26,0,5.77.39,8.55,2.19,2.34,1.49,3.34,3.15,3.99,4.33l-3.95,1.14c-.39-.66-.95-1.71-2.43-2.67-1.22-.79-3.39-1.66-6.17-1.66-4.82,0-9.72,2.67-9.72,8.23,0,4.9,4.3,7.87,9.72,7.87,1.95,0,4.39-.44,6.25-1.58,1.39-.87,1.95-1.66,2.56-2.58l3.95,1.01Z"/><path d="M255.72,88.6c.91-2.49,2-5.43,11.42-5.43,1.87,0,4.47.22,6.42.74,4.73,1.31,4.73,4.37,4.73,6.74v7.74c0,2.84,0,4.03,2.34,4.03.52,0,1.04-.09,1.56-.13v2.84c-1.34.13-2.56.26-3.65.26-3.69,0-3.91-2.1-4.08-3.63-.52.79-1.09,1.62-2.87,2.62-1.82.96-4.43,1.58-7.21,1.58-8.73,0-10.07-4.99-10.07-7.35,0-2.63,1.43-5.21,4.86-6.13,2.17-.57,6.34-.61,9.2-.61h5.99c.04-2.28.04-3.98-2.21-4.94-.87-.4-2.47-.75-4.78-.75-1.78,0-3.56.13-5.17.79-1.56.61-2,1.35-2.34,2.01l-4.17-.39ZM266.71,95.07c-2.43,0-4.69.04-6.03.57-1.52.57-2.21,1.71-2.21,2.93,0,1.97,1.69,4.2,6.08,4.2.7,0,4.34-.09,6.95-1.84,2.78-1.88,2.95-4.29,2.95-5.86h-7.73Z"/><rect x="285.85" y="74.29" width="4.08" height="30.89"/><path d="M317.67,74.29v18.33c.04,3.59.39,5.69,3.04,7.39,1.13.75,3.56,2.1,8.42,2.1,2.95,0,5.56-.57,7.25-1.36,3.95-1.79,3.95-4.99,3.95-7.57v-18.9h4.39v18.55c0,3.11,0,7.35-4.69,10.41-2.13,1.4-5.56,2.67-10.94,2.67-3.99,0-8.03-.66-11.33-2.97-4.34-3.02-4.47-7-4.47-10.5v-18.16h4.38Z"/><polygon points="388.61 83.83 397.03 100.98 405.58 83.83 410.22 83.83 399.33 105.18 394.73 105.18 384.04 83.83 388.61 83.83"/><path d="M456.11,99.14c1.35,1.05,4.25,3.32,10.63,3.32,1.48,0,3.73-.17,5.21-.7,1.3-.48,2.39-1.36,2.39-2.76,0-2.01-2.52-2.45-3.34-2.58-1.22-.17-7.21-.61-8.55-.79-2.43-.22-7.9-.83-7.9-5.87,0-6.21,8.03-6.78,11.77-6.78,7.6,0,11.33,2.98,12.33,3.98l-3.6,2.01c-2.08-1.44-5.08-2.49-9.03-2.49-1.61,0-3.3.04-4.82.66-1.39.53-2.08,1.36-2.08,2.28,0,2.01,2.82,2.32,5.34,2.58,2.09.26,4.17.35,6.25.57,1.17.09,2.3.22,3.39.48.82.22,4.65,1.22,4.65,5.69,0,5.43-5.78,7.22-11.68,7.22-5.25,0-10.94-1.18-14.5-4.46l3.56-2.36Z"/><path d="M505.59,83.79h4.69l8.29,17.24,8.59-17.24h4.6l-11.98,23.45c-1.39,2.71-2.91,5.38-7.86,5.38-1.69,0-3.3-.26-5.04-.53v-3.72c1.35.26,2.91.61,4.34.61,3.04,0,4.04-1.66,5.12-3.67l-10.77-21.53Z"/>
</svg>